# xmcd CD database file
#
# Track frame offsets:
#	150
#	18460
#	35287
#	49643
#	65175
#	81728
#	97017
#	116798
#	134612
#	151174
#	168128
#	183241
#	205187
#	217866
#
# Disc length: 3188 seconds
#
# Revision: 2
# Processed by: cddbd v1.5.1PL0 Copyright (c) Steve Scherf et al.
# Submitted via: jetAudio 5
#
DISCID=c30c720e
DTITLE=Jonny Lang - Long Time Coming
DYEAR=1900
DGENRE=
TTITLE0=Give Me Up Again
TTITLE1=Red Light
TTITLE2=Get What You Give
TTITLE3=The One I Got
TTITLE4=Touch
TTITLE5=Beautiful One
TTITLE6=Pista 7
TTITLE7=If We Try
TTITLE8=Save Yourself
TTITLE9=To Love Again
TTITLE10=Happiness and Misery
TTITLE11=Hide Your Love
TTITLE12=Long Time Coming
TTITLE13=Livin' for the City
EXTD=
EXTT0=
EXTT1=
EXTT2=
EXTT3=
EXTT4=
EXTT5=
EXTT6=
EXTT7=
EXTT8=
EXTT9=
EXTT10=
EXTT11=
EXTT12=
EXTT13=
PLAYORDER=
